<svg width="44" height="44" viewBox="0 0 44 44" fill="none" xmlns="http://www.w3.org/2000/svg">
<path d="M13.9823 34.6198C14.2245 34.8633 14.5529 35 14.8952 35C15.2376 35 15.566 34.8633 15.8082 34.6198L21.2905 29.1056L19.4624 27.2661L16.1872 30.5616V10.1299H13.6033L13.6033 30.5616L10.3281 27.2661L8.5 29.1056L13.9823 34.6198ZM24.5333 16.7361L27.8063 13.4405V33.9167H30.3903V13.4384L33.674 16.7361L35.5 14.8987L30.0199 9.38019C29.7777 9.13674 29.4493 9 29.1069 9C28.7645 9 28.4362 9.13674 28.1939 9.38019L22.7117 14.8987L24.5333 16.7361Z" fill="white"/>
</svg>
