<svg width="32" height="38" viewBox="0 0 32 38" fill="none" xmlns="http://www.w3.org/2000/svg">
<path d="M32 15.4167C32 23.8258 24 31.9545 16 37C8 31.9545 0 23.8258 0 15.4167C0 7.98592 7.16344 0 16 0C24.8366 0 32 7.98592 32 15.4167Z" fill="#CC141A"/>
<path d="M31.5 15.4167C31.5 19.4632 29.5725 23.4892 26.611 27.1555C23.7197 30.735 19.8756 33.9298 16 36.4077C12.1244 33.9298 8.28029 30.735 5.38896 27.1555C2.42749 23.4892 0.5 19.4632 0.5 15.4167C0.5 11.8564 2.221 8.12332 5.04166 5.27354C7.85845 2.42766 11.7355 0.5 16 0.5C20.2645 0.5 24.1415 2.42766 26.9583 5.27354C29.779 8.12332 31.5 11.8564 31.5 15.4167Z" stroke="black" stroke-opacity="0.3"/>
<path d="M15.816 18.582V19.602H6V18.582H10.272V16.026H7.2V10.874H14.616V11.874H8.436V15.03H14.712V16.03H11.508V18.586L15.816 18.582ZM22.848 16.29C22.268 16.1367 21.7278 15.8605 21.264 15.48C20.8422 15.1313 20.501 14.6953 20.264 14.202C20.0194 14.7344 19.6682 15.2109 19.232 15.602C18.7599 16.0158 18.2028 16.3209 17.6 16.496L17.012 15.524C17.4051 15.4067 17.779 15.2329 18.122 15.008C18.4296 14.8068 18.7047 14.56 18.938 14.276C19.153 14.01 19.322 13.7098 19.438 13.388C19.5532 13.0727 19.6121 12.7397 19.612 12.404V12.284H17.332V11.3H19.612V10H20.868V11.3H23.136V12.284H20.856V12.404C20.8563 12.7176 20.9132 13.0286 21.024 13.322C21.1398 13.6275 21.3091 13.9099 21.524 14.156C21.7586 14.4245 22.0316 14.657 22.334 14.846C22.6755 15.0598 23.046 15.2234 23.434 15.332L22.848 16.29ZM27.036 13.874H25.5V16.682H24.264V10.05H25.5V12.858H27.036V13.874ZM18.372 17.202H25.5V20.922H24.264V18.198H18.372V17.202Z" fill="white"/>
</svg>
