<svg width="24" height="28" viewBox="0 0 24 28" fill="none" xmlns="http://www.w3.org/2000/svg">
<path d="M24 11.3599C24 17.5561 18 23.5457 12 27.2634C6 23.5457 0 17.5561 0 11.3599C0 5.88461 5.37258 0.000244141 12 0.000244141C18.6274 0.000244141 24 5.88461 24 11.3599Z" fill="#CC141A"/>
<path d="M23.5 11.3599C23.5 14.2971 22.0751 17.234 19.8638 19.9235C17.722 22.5285 14.8766 24.8589 12 26.6737C9.12341 24.8589 6.27799 22.5285 4.13622 19.9235C1.92494 17.234 0.5 14.2971 0.5 11.3599C0.5 8.78046 1.77063 6.06251 3.86696 3.9817C5.95907 1.90507 8.837 0.500244 12 0.500244C15.163 0.500244 18.0409 1.90507 20.133 3.9817C22.2294 6.06251 23.5 8.78046 23.5 11.3599Z" stroke="black" stroke-opacity="0.3"/>
<path d="M11.862 13.6922V14.4438H4.5V13.6922H7.704V11.8089H5.4V8.01265H10.962V8.74949H6.327V11.075H11.034V11.8118H8.631V13.6952L11.862 13.6922ZM17.136 12.0034C16.701 11.8904 16.2959 11.6869 15.948 11.4065C15.6316 11.1496 15.3757 10.8283 15.198 10.4649C15.0146 10.8571 14.7511 11.2083 14.424 11.4964C14.0699 11.8013 13.6521 12.0262 13.2 12.1552L12.759 11.439C13.0538 11.3525 13.3342 11.2245 13.5915 11.0588C13.8222 10.9105 14.0285 10.7286 14.2035 10.5194C14.3648 10.3234 14.4915 10.1022 14.5785 9.86507C14.6649 9.63276 14.7091 9.38735 14.709 9.14002V9.0516H12.999V8.32655H14.709V7.36865H15.651V8.32655H17.352V9.0516H15.642V9.14002C15.6422 9.37111 15.6849 9.60026 15.768 9.81644C15.8548 10.0415 15.9818 10.2496 16.143 10.431C16.319 10.6288 16.5237 10.8002 16.7505 10.9394C17.0067 11.0969 17.2845 11.2175 17.5755 11.2975L17.136 12.0034ZM20.277 10.2232H19.125V12.2922H18.198V7.40549H19.125V9.47455H20.277V10.2232ZM13.779 12.6754H19.125V15.4164H18.198V13.4093H13.779V12.6754Z" fill="white"/>
</svg>
