<svg width="25" height="24" viewBox="0 0 25 24" fill="none" xmlns="http://www.w3.org/2000/svg">
<path fill-rule="evenodd" clip-rule="evenodd" d="M12.5025 2.89453C12.4707 2.89453 12.4395 2.9028 12.4119 2.91852C12.3893 2.9314 12.3697 2.94893 12.3545 2.96988L9.62572 8.46398L3.48506 9.35379C3.45816 9.35821 3.43296 9.36988 3.41218 9.38755C3.39098 9.40559 3.37521 9.42918 3.36665 9.45567C3.35808 9.48217 3.35706 9.51052 3.3637 9.53756C3.37019 9.56402 3.38376 9.58819 3.40294 9.60751L7.84453 13.9017L6.79646 19.9721C6.79642 19.9724 6.7965 19.9719 6.79646 19.9721C6.79299 19.9933 6.79399 20.0158 6.79964 20.0366C6.80536 20.0576 6.81558 20.0771 6.82959 20.0937C6.8436 20.1104 6.86106 20.1238 6.88077 20.133C6.90048 20.1422 6.92195 20.147 6.94371 20.1471C6.966 20.1472 6.98695 20.1418 7.00667 20.1314L7.00866 20.1304L12.5007 17.261L17.9944 20.1278C17.9939 20.1276 17.9948 20.1281 17.9944 20.1278C18.0187 20.1401 18.0473 20.1461 18.0745 20.1439C18.1022 20.1418 18.1287 20.132 18.1512 20.1156C18.1736 20.0993 18.1911 20.077 18.2016 20.0513C18.2119 20.0262 18.2152 19.9988 18.2112 19.972L17.1602 13.905L21.6018 9.60917C21.621 9.58984 21.6345 9.56564 21.641 9.53917C21.6477 9.51211 21.6466 9.48374 21.638 9.45724C21.6294 9.43075 21.6136 9.40716 21.5924 9.38914C21.5715 9.37138 21.5461 9.35971 21.519 9.35539C21.5186 9.35532 21.5194 9.35545 21.519 9.35539L15.3807 8.46385L12.6505 2.96992C12.6352 2.94896 12.6157 2.93141 12.593 2.91852C12.5654 2.9028 12.5342 2.89453 12.5025 2.89453ZM11.6695 1.61512C11.9233 1.47055 12.2104 1.39453 12.5025 1.39453C12.7945 1.39453 13.0816 1.47055 13.3354 1.61512C13.5892 1.75969 13.8011 1.96783 13.95 2.21907L13.9642 2.24297L16.3742 7.09241L21.7421 7.87205C22.0451 7.91789 22.3293 8.0472 22.563 8.24548C22.7966 8.44375 22.9704 8.70317 23.0649 8.99466C23.1594 9.28615 23.1709 9.5982 23.098 9.89583C23.0251 10.1935 22.8708 10.4649 22.6524 10.6798L22.6479 10.6843L18.7737 14.4313L19.6911 19.7272C19.7406 20.0286 19.7053 20.3379 19.5894 20.6205C19.4735 20.9031 19.2814 21.148 19.0345 21.3279C18.7876 21.5078 18.4956 21.6157 18.1911 21.6394C17.8865 21.6631 17.5813 21.6019 17.3095 21.4624L17.305 21.4601L12.5012 18.9532L7.70524 21.4588C7.70485 21.459 7.70562 21.4586 7.70524 21.4588C7.46907 21.5829 7.20499 21.6479 6.93821 21.6471C6.69887 21.6461 6.46159 21.593 6.24482 21.4915C6.02804 21.39 5.83594 21.2426 5.68184 21.0595C5.52774 20.8763 5.41533 20.6618 5.3524 20.4309C5.28948 20.2 5.27755 19.9581 5.31744 19.7221L5.31789 19.7195L6.23138 14.4285L2.35267 10.6785C2.13426 10.4638 1.97993 10.1925 1.90693 9.8951C1.83393 9.59766 1.84515 9.28577 1.93935 8.99435C2.03354 8.70293 2.20698 8.44348 2.44025 8.24503C2.67353 8.04659 2.95743 7.91699 3.26018 7.87073L3.26589 7.86986L8.63218 7.09228L11.0406 2.24305L11.0549 2.21907C11.2038 1.96783 11.4157 1.75969 11.6695 1.61512Z" fill="white"/>
</svg>
