<svg width="16" height="16" viewBox="0 0 16 16" fill="none" xmlns="http://www.w3.org/2000/svg">
<path d="M13.338 1.50775C9.81187 0.83075 6.18913 0.83075 2.663 1.50775C2.47693 1.54366 2.3091 1.64305 2.18817 1.78897C2.06725 1.93488 2.00074 2.11825 2 2.30775V13.0557C1.99973 13.3012 2.0969 13.5367 2.27016 13.7105C2.44341 13.8843 2.67858 13.9822 2.924 13.9827H4V13.9997C4 14.265 4.10536 14.5193 4.29289 14.7069C4.48043 14.8944 4.73478 14.9997 5 14.9997C5.26522 14.9997 5.51957 14.8944 5.70711 14.7069C5.89464 14.5193 6 14.265 6 13.9997V13.9837H10V13.9997C10 14.265 10.1054 14.5193 10.2929 14.7069C10.4804 14.8944 10.7348 14.9997 11 14.9997C11.2652 14.9997 11.5196 14.8944 11.7071 14.7069C11.8946 14.5193 12 14.265 12 13.9997V13.9837H13.077C13.3224 13.983 13.5575 13.8848 13.7306 13.7108C13.9036 13.5368 14.0005 13.3012 14 13.0557V2.31175C13.9993 2.12239 13.9329 1.93913 13.8122 1.79324C13.6915 1.64735 13.5239 1.54786 13.338 1.51175M6.5 1.98375H9.5C9.63261 1.98375 9.75979 2.03643 9.85355 2.1302C9.94732 2.22396 10 2.35114 10 2.48375C10 2.61636 9.94732 2.74353 9.85355 2.8373C9.75979 2.93107 9.63261 2.98375 9.5 2.98375H6.5C6.36739 2.98375 6.24022 2.93107 6.14645 2.8373C6.05268 2.74353 6 2.61636 6 2.48375C6 2.35114 6.05268 2.22396 6.14645 2.1302C6.24022 2.03643 6.36739 1.98375 6.5 1.98375ZM5 12.7337C5 12.8717 4.851 12.9837 4.667 12.9837H3.333C3.149 12.9837 3 12.8717 3 12.7337V12.2337C3 12.0957 3.149 11.9837 3.333 11.9837H4.667C4.851 11.9837 5 12.0957 5 12.2337V12.7337ZM13 12.7337C13 12.8717 12.851 12.9837 12.667 12.9837H11.333C11.149 12.9837 11 12.8717 11 12.7337V12.2337C11 12.0957 11.149 11.9837 11.333 11.9837H12.667C12.851 11.9837 13 12.0957 13 12.2337V12.7337ZM13 10.6337C13.0022 10.7243 12.9683 10.812 12.9059 10.8776C12.8434 10.9432 12.7575 10.9814 12.667 10.9837H3.333C3.24246 10.9814 3.15656 10.9432 3.09413 10.8776C3.0317 10.812 2.99785 10.7243 3 10.6337V4.48375C3.00572 4.34562 3.066 4.21541 3.16761 4.12167C3.26922 4.02794 3.40386 3.97833 3.542 3.98375H12.458C12.5961 3.97833 12.7308 4.02794 12.8324 4.12167C12.934 4.21541 12.9943 4.34562 13 4.48375V10.6337Z" fill="white"/>
</svg>
