<svg width="32" height="38" viewBox="0 0 32 38" fill="none" xmlns="http://www.w3.org/2000/svg">
<path d="M32 15.4167C32 23.8258 24 31.9545 16 37C8 31.9545 0 23.8258 0 15.4167C0 7.98592 7.16344 0 16 0C24.8366 0 32 7.98592 32 15.4167Z" fill="white"/>
<path d="M31.5 15.4167C31.5 19.4632 29.5725 23.4892 26.611 27.1555C23.7197 30.735 19.8756 33.9298 16 36.4077C12.1244 33.9298 8.28029 30.735 5.38896 27.1555C2.42749 23.4892 0.5 19.4632 0.5 15.4167C0.5 11.8564 2.221 8.12332 5.04166 5.27354C7.85845 2.42766 11.7355 0.5 16 0.5C20.2645 0.5 24.1415 2.42766 26.9583 5.27354C29.779 8.12332 31.5 11.8564 31.5 15.4167Z" stroke="black" stroke-opacity="0.3"/>
<g opacity="0.8">
<path d="M32 15.4167C32 23.8258 24 31.9545 16 37C8 31.9545 0 23.8258 0 15.4167C0 7.98592 7.16344 0 16 0C24.8366 0 32 7.98592 32 15.4167Z" fill="#CC4E00"/>
<path d="M31.5 15.4167C31.5 19.4632 29.5725 23.4892 26.611 27.1555C23.7197 30.735 19.8756 33.9298 16 36.4077C12.1244 33.9298 8.28029 30.735 5.38896 27.1555C2.42749 23.4892 0.5 19.4632 0.5 15.4167C0.5 11.8564 2.221 8.12332 5.04166 5.27354C7.85845 2.42766 11.7355 0.5 16 0.5C20.2645 0.5 24.1415 2.42766 26.9583 5.27354C29.779 8.12332 31.5 11.8564 31.5 15.4167Z" stroke="black" stroke-opacity="0.3"/>
</g>
<path d="M10.8398 23.2005V8.80046H16.0118C17.4918 8.70471 18.966 9.06001 20.2398 9.81946C20.7126 10.1486 21.0937 10.5929 21.3471 11.1103C21.6004 11.6277 21.7177 12.2011 21.6878 12.7765C21.7078 13.4495 21.529 14.1135 21.1738 14.6855C20.8102 15.229 20.2789 15.6388 19.6608 15.8525C20.3489 16.0093 20.9609 16.4007 21.3918 16.9595C21.8036 17.535 22.0145 18.2301 21.9918 18.9375C22.0342 19.5355 21.9349 20.1352 21.7021 20.6877C21.4692 21.2402 21.1094 21.73 20.6518 22.1175C19.4844 22.907 18.0885 23.2878 16.6818 23.2005H10.8398ZM14.3108 14.8005H16.1198C16.6908 14.8471 17.2609 14.7018 17.7398 14.3875C17.9061 14.2371 18.0362 14.051 18.1202 13.8432C18.2042 13.6353 18.24 13.4111 18.2248 13.1875C18.2479 12.9423 18.2123 12.6953 18.121 12.4666C18.0298 12.2379 17.8854 12.0343 17.6998 11.8725C17.1926 11.5637 16.6006 11.4236 16.0088 11.4725H14.3088L14.3108 14.8005ZM14.3108 17.0755V20.5275H16.5858C17.1028 20.5627 17.6152 20.4111 18.0298 20.1005C18.199 19.9493 18.3318 19.7618 18.4183 19.5521C18.5049 19.3425 18.543 19.1159 18.5298 18.8895C18.5642 18.6455 18.5418 18.3969 18.4643 18.163C18.3868 17.9291 18.2564 17.7163 18.0831 17.5411C17.9099 17.3659 17.6985 17.2331 17.4655 17.1531C17.2325 17.073 16.9842 17.0478 16.7398 17.0795L14.3108 17.0755Z" fill="white"/>
</svg>
