<svg width="16" height="16" viewBox="0 0 16 16" fill="none" xmlns="http://www.w3.org/2000/svg">
<path d="M13.6577 2.34399C12.539 1.22493 11.1135 0.462766 9.56161 0.153889C8.00969 -0.154989 6.40104 0.00333329 4.93909 0.608763C3.47714 1.21419 2.22759 2.23957 1.34843 3.55521C0.469271 4.87086 0 6.41764 0 7.99999C0 9.58235 0.469271 11.1292 1.34843 12.4448C2.22759 13.7605 3.47714 14.7858 4.93909 15.3913C6.40104 15.9967 8.00969 16.155 9.56161 15.8461C11.1135 15.5372 12.539 14.7751 13.6577 13.656C15.1575 12.1558 16 10.1213 16 7.99999C16 5.87868 15.1575 3.84421 13.6577 2.34399ZM11.4404 5.69466L9.13237 8.00268L11.4404 10.3094C11.5241 10.3811 11.5921 10.4693 11.6401 10.5686C11.6882 10.6678 11.7151 10.7759 11.7194 10.8861C11.7237 10.9963 11.7051 11.1062 11.6649 11.2088C11.6247 11.3115 11.5636 11.4047 11.4857 11.4827C11.4077 11.5606 11.3145 11.6216 11.2118 11.6619C11.1092 11.7021 10.9993 11.7206 10.8891 11.7164C10.7789 11.7121 10.6709 11.6851 10.5716 11.6371C10.4724 11.5891 10.3841 11.5211 10.3124 11.4373L8.00439 9.13069L5.69771 11.4373C5.54467 11.5684 5.34783 11.6369 5.14648 11.6291C4.94514 11.6213 4.75413 11.5379 4.61165 11.3954C4.46918 11.2529 4.38571 11.0619 4.37793 10.8606C4.37015 10.6592 4.43864 10.4624 4.5697 10.3094L6.87638 8.00268L4.5697 5.69466C4.43864 5.54162 4.37015 5.34477 4.37793 5.14343C4.38571 4.94209 4.46918 4.75111 4.61165 4.60864C4.75413 4.46616 4.94514 4.38269 5.14648 4.37492C5.34783 4.36714 5.54467 4.43563 5.69771 4.56669L8.00439 6.87467L10.3124 4.56669C10.4654 4.43563 10.6623 4.36714 10.8636 4.37492C11.0649 4.38269 11.256 4.46616 11.3984 4.60864C11.5409 4.75111 11.6244 4.94209 11.6322 5.14343C11.6399 5.34477 11.5715 5.54162 11.4404 5.69466Z" fill="white" fill-opacity="0.24"/>
</svg>
