<svg width="100" height="26" viewBox="0 0 100 26" fill="none" xmlns="http://www.w3.org/2000/svg">
<path d="M10.5512 13.0425L9.59937 2.29187C7.87179 2.90536 6.62964 4.58514 6.62964 6.56192C6.62964 7.03908 6.70579 7.49676 6.83904 7.93009C6.11565 7.39938 5.23044 7.08777 4.27384 7.08777C2.77946 7.08777 1.46116 7.84732 0.661621 9.00612L10.5512 13.0425Z" fill="#00AE4D"/>
<path d="M10.2703 14.0357L0 11.572C0.0237959 13.4417 1.1898 15.175 3.02684 15.7983C3.46945 15.9492 3.92157 16.0174 4.36417 16.0271C3.64554 16.5627 3.07919 17.3222 2.77461 18.2522C2.30345 19.7031 2.59376 21.2222 3.4171 22.3616L10.2751 14.0308L10.2703 14.0357Z" fill="#00AE4D"/>
<path d="M11.127 14.5372L5.7063 23.7979C7.45768 24.3433 9.42322 23.7346 10.5654 22.1376C10.8415 21.753 11.0413 21.3343 11.1841 20.9058C11.4649 21.7676 11.9979 22.5564 12.7737 23.1309C13.9778 24.0316 15.4817 24.2118 16.7952 23.759L11.127 14.5372Z" fill="#00AE4D"/>
<path d="M11.5981 13.0425L21.3069 8.81135C20.2028 7.31659 18.261 6.6252 16.424 7.23382C15.9814 7.37989 15.5768 7.59412 15.2151 7.86191C15.4864 6.99524 15.5054 6.03606 15.2104 5.1061C14.7535 3.65516 13.6398 2.60347 12.3168 2.17987L11.6029 13.0473L11.5981 13.0425Z" fill="#00AE4D"/>
<path d="M11.8884 13.9578L18.8273 22.0889C19.8743 20.5552 19.9124 18.447 18.7797 16.85C18.5037 16.4653 18.1801 16.1391 17.8231 15.8665C18.7131 15.8616 19.6078 15.5792 20.3836 15.0047C21.5924 14.1088 22.2254 12.7016 22.2063 11.2848L11.8884 13.9578Z" fill="#00AE4D"/>
<path d="M27.5986 5.06226H33.5238V6.81507H29.6165V13.3881H34.8088V4.78473H36.9409V8.78699H37.9641V4.78473H40.0915V17.6874H37.9641V10.5788H36.9409V17.6874H34.8088V15.2091H27.5986V5.06226Z" fill="#1C3687"/>
<path d="M42.2188 4.78473V6.57649H46.3926L42.2188 10.8855L43.6846 12.2147L46.7209 9.0207L49.724 12.2147L51.2136 10.8855L47.2159 6.57649H51.2136V4.78473H42.2188Z" fill="#1C3687"/>
<path d="M43.5085 12.9986V17.6874H54.864V15.7495H45.4931V12.9986H43.5085Z" fill="#1C3687"/>
<path d="M50.5425 7.50647V9.15217H52.7317V14.0844H54.8638V4.48773H52.7317V7.50647H50.5425Z" fill="#1C3687"/>
<path d="M57.491 4.78474V6.5765H64.3775V9.15217H62.0122V7.50647H59.8848V9.15217H57.134V10.8855H67.8517V11.723H70.0124V8.40722H71.7638V6.5765H70.0124V4.48773H67.8517V9.15217H66.4811V4.78474H57.491Z" fill="#1C3687"/>
<path d="M64.1443 11.3529C60.9081 11.3529 58.281 12.7698 58.281 14.5226C58.281 16.2754 60.9033 17.6874 64.1443 17.6874C67.3853 17.6874 70.0076 16.2705 70.0076 14.5226C70.0076 12.7746 67.3853 11.3529 64.1443 11.3529ZM64.1443 16.0417C62.1597 16.0417 60.5511 15.36 60.5511 14.5226C60.5511 13.6851 62.1597 13.0035 64.1443 13.0035C66.1289 13.0035 67.7375 13.6851 67.7375 14.5226C67.7375 15.36 66.1289 16.0417 64.1443 16.0417Z" fill="#1C3687"/>
<path d="M83.8759 4.49261V5.93382H80.7634C79.9258 5.1694 78.7026 4.68737 77.3368 4.68737C74.8049 4.68737 72.7537 6.35255 72.7537 8.40236C72.7537 10.4522 74.8049 12.1174 77.3368 12.1174C78.7978 12.1174 80.0971 11.5623 80.9347 10.7005H83.8759V12.0833H85.8605V4.49261H83.8759ZM77.3368 10.384C75.9709 10.384 74.862 9.49787 74.862 8.3975C74.862 7.29712 75.9709 6.41097 77.3368 6.41097C78.7026 6.41097 79.8115 7.30199 79.8115 8.3975C79.8115 9.493 78.7026 10.384 77.3368 10.384ZM83.8759 9.03533H81.8532C81.8961 8.82596 81.9199 8.6166 81.9199 8.3975C81.9199 8.11997 81.8818 7.85218 81.8104 7.59412H83.8759V9.03533Z" fill="#1C3687"/>
<path d="M74.01 12.8477V14.5518H83.8758V17.6631H85.8604V12.8477H74.01Z" fill="#1C3687"/>
<path d="M92.2805 5.30084L87.4976 13.5147L89.2775 14.5275L92.2805 9.48325L95.4073 14.5275L97.2444 13.5147L92.2805 5.30084Z" fill="#1C3687"/>
<path d="M100 4.76038H98.0154V17.663H100V4.76038Z" fill="#1C3687"/>
<path d="M28.2363 22.7121V20.2777H29.0216C29.3785 20.2777 29.6355 20.3848 29.7973 20.6039C29.9591 20.823 30.04 21.1249 30.04 21.5192C30.04 21.6215 30.0305 21.7335 30.0067 21.8503C29.9686 22.05 29.9068 22.2155 29.8164 22.3421C29.7069 22.5028 29.5641 22.6099 29.3928 22.6634C29.2976 22.6927 29.1739 22.7073 29.0263 22.7073H28.2411L28.2363 22.7121ZM27.7842 23.0773H29.112C29.6736 23.0773 30.0733 22.8387 30.3018 22.3567C30.435 22.084 30.4969 21.7773 30.4969 21.4413C30.4969 21.0031 30.3875 20.6477 30.1638 20.3653C29.9163 20.0537 29.5641 19.8979 29.112 19.8979H27.7842V23.0724V23.0773Z" fill="#25408F"/>
<path d="M31.7437 21.7773L32.2767 20.3751L32.786 21.7773H31.7437ZM30.7871 23.0773H31.2488L31.6104 22.1279H32.9145L33.2619 23.0773H33.7568L32.5528 19.9028H32.0435L30.7919 23.0773H30.7871Z" fill="#25408F"/>
<path d="M34.152 19.9028H36.5744V20.2923H34.5898V21.2563H36.4269V21.6215H34.5898V22.7024H36.603V23.0773H34.1472V19.9028H34.152Z" fill="#25408F"/>
<path d="M38.7826 22.1327C38.7826 22.4005 38.7398 22.605 38.6588 22.756C38.5066 23.0286 38.2115 23.165 37.7832 23.165C37.5357 23.165 37.3215 23.1017 37.1454 22.9702C36.9693 22.8387 36.8789 22.6099 36.8789 22.2788V22.05H37.3025V22.2788C37.3025 22.4541 37.3405 22.5856 37.4215 22.6781C37.5024 22.7657 37.6261 22.8095 37.7927 22.8095C38.0306 22.8095 38.1877 22.7316 38.2591 22.5709C38.3019 22.4736 38.3257 22.2934 38.3257 22.0256V19.9028H38.7778V22.1279L38.7826 22.1327Z" fill="#25408F"/>
<path d="M39.4633 19.9028H41.8857V20.2923H39.9011V21.2563H41.7381V21.6215H39.9011V22.7024H41.9142V23.0773H39.4585V19.9028H39.4633Z" fill="#25408F"/>
<path d="M43.9321 22.7852C43.5133 22.7852 43.2134 22.6634 43.0278 22.4249C42.8422 22.1814 42.747 21.8844 42.747 21.5339C42.747 21.0908 42.8565 20.7597 43.0707 20.5309C43.2896 20.3069 43.5704 20.19 43.913 20.19C44.2557 20.19 44.546 20.302 44.7507 20.5309C44.9553 20.7597 45.0552 21.0616 45.0552 21.4365C45.0552 21.7919 44.9648 22.1035 44.7887 22.3762C44.6126 22.6488 44.3271 22.7852 43.9273 22.7852H43.9321ZM43.8892 19.82C43.3277 19.82 42.9041 20.0148 42.6185 20.4043C42.3949 20.7061 42.2854 21.0762 42.2854 21.4998C42.2854 21.9721 42.4139 22.3664 42.6757 22.6732C42.966 22.9945 43.3705 23.1552 43.8797 23.1552C44.427 23.1552 44.8458 22.9702 45.1409 22.605C45.3931 22.2934 45.5169 21.899 45.5169 21.4267C45.5169 20.9885 45.4074 20.6331 45.1885 20.3507C44.9077 19.9953 44.4746 19.8151 43.8892 19.8151V19.82Z" fill="#25408F"/>
<path d="M46.012 19.9028H46.545L48.2012 22.4687V19.9028H48.6343V23.0773H48.125L46.445 20.5163V23.0773H46.012V19.9028Z" fill="#25408F"/>
<path d="M51.7847 19.9028H52.4319L53.3885 22.5856L54.3356 19.9028H54.9781V23.0773H54.545V21.2076C54.545 21.1443 54.545 21.0372 54.5545 20.8863C54.5545 20.7354 54.564 20.5747 54.564 20.4043L53.6122 23.0773H53.1648L52.2035 20.4043V20.5016C52.2035 20.5796 52.2035 20.6964 52.213 20.8571C52.213 21.0178 52.2225 21.1346 52.2225 21.2076V23.0773H51.7894V19.9028H51.7847Z" fill="#25408F"/>
<path d="M55.6444 19.9028H58.0668V20.2923H56.0822V21.2563H57.9193V21.6215H56.0822V22.7024H58.0954V23.0773H55.6396V19.9028H55.6444Z" fill="#25408F"/>
<path d="M61.0461 19.9028V20.2777H59.9325V23.0773H59.4804V20.2777H58.3667V19.9028H61.0509H61.0461Z" fill="#25408F"/>
<path d="M61.9361 21.3586V20.2777H62.9927C63.1402 20.2777 63.2592 20.2971 63.3449 20.341C63.5114 20.4237 63.5923 20.5747 63.5923 20.8035C63.5923 21.0129 63.5352 21.1589 63.4162 21.2368C63.2973 21.3196 63.1402 21.3586 62.9356 21.3586H61.9361ZM61.484 23.0773H61.9361V21.714H62.9165C63.0926 21.714 63.2211 21.7335 63.302 21.7724C63.4448 21.8406 63.5209 21.9818 63.5352 22.1912L63.5733 22.717C63.5733 22.8436 63.5828 22.9264 63.5923 22.9702C63.6018 23.014 63.6114 23.0481 63.6256 23.0724H64.1825V23.0043C64.1111 22.9751 64.0635 22.9118 64.0349 22.8095C64.0159 22.7511 64.0064 22.6586 64.0016 22.5417L63.9873 22.1133C63.9778 21.9282 63.9445 21.7968 63.8779 21.714C63.8113 21.6312 63.7161 21.5631 63.5828 21.5144C63.7303 21.4413 63.8446 21.344 63.9302 21.2222C64.0111 21.1005 64.054 20.9447 64.054 20.7548C64.054 20.3896 63.9017 20.1413 63.5971 20.005C63.4353 19.9368 63.2306 19.8979 62.9832 19.8979H61.4792V23.0724L61.484 23.0773Z" fill="#25408F"/>
<path d="M66.1955 22.7852C65.7767 22.7852 65.4769 22.6634 65.2913 22.4249C65.1057 22.1814 65.0105 21.8844 65.0105 21.5339C65.0105 21.0908 65.1199 20.7597 65.3388 20.5309C65.5578 20.3069 65.8338 20.19 66.1812 20.19C66.5286 20.19 66.8142 20.302 67.0188 20.5309C67.2235 20.7597 67.3234 21.0616 67.3234 21.4365C67.3234 21.7919 67.233 22.1035 67.0569 22.3762C66.8808 22.6488 66.5905 22.7852 66.1955 22.7852ZM66.1527 19.82C65.5911 19.82 65.1675 20.0148 64.882 20.4043C64.6583 20.7061 64.5488 21.0762 64.5488 21.4998C64.5488 21.9721 64.6773 22.3664 64.9391 22.6732C65.2294 22.9945 65.6339 23.1552 66.1432 23.1552C66.6905 23.1552 67.1093 22.9702 67.4043 22.605C67.6566 22.2934 67.7803 21.899 67.7803 21.4267C67.7803 20.9885 67.6708 20.6331 67.4519 20.3507C67.1711 19.9953 66.7381 19.8151 66.1527 19.8151V19.82Z" fill="#25408F"/>
<path d="M70.3265 20.8181C70.3265 21.0275 70.2646 21.1687 70.1409 21.2515C70.0171 21.3342 69.8553 21.3732 69.6554 21.3732H68.7702V20.2777H69.6554C69.8268 20.2777 69.96 20.302 70.06 20.3458C70.2361 20.4286 70.3265 20.5844 70.3265 20.8181ZM68.3181 23.0773H68.7702V21.7384H69.7982C70.1266 21.7384 70.3741 21.6458 70.5359 21.4608C70.6977 21.2758 70.7786 21.0616 70.7786 20.8133C70.7786 20.526 70.6882 20.302 70.5026 20.1413C70.3217 19.9807 70.0838 19.9028 69.7887 19.9028H68.3086V23.0773H68.3181Z" fill="#25408F"/>
<path d="M72.7917 22.7852C72.3729 22.7852 72.0731 22.6634 71.8875 22.4249C71.7018 22.1814 71.6067 21.8844 71.6067 21.5339C71.6067 21.0908 71.7161 20.7597 71.9303 20.5309C72.1492 20.3069 72.43 20.19 72.7727 20.19C73.1153 20.19 73.4056 20.302 73.6103 20.5309C73.8149 20.7597 73.9149 21.0616 73.9149 21.4365C73.9149 21.7919 73.8244 22.1035 73.6483 22.3762C73.4723 22.6488 73.1819 22.7852 72.7869 22.7852H72.7917ZM72.7489 19.82C72.1873 19.82 71.7637 20.0148 71.4782 20.4043C71.2545 20.7061 71.145 21.0762 71.145 21.4998C71.145 21.9721 71.2735 22.3664 71.5353 22.6732C71.8256 22.9945 72.2301 23.1552 72.7393 23.1552C73.2866 23.1552 73.7055 22.9702 74.0005 22.605C74.2528 22.2934 74.3765 21.899 74.3765 21.4267C74.3765 20.9885 74.267 20.6331 74.0481 20.3507C73.7673 19.9953 73.3342 19.8151 72.7489 19.8151V19.82Z" fill="#25408F"/>
<path d="M74.8811 19.9028H75.3332V22.7024H76.9942V23.0773H74.8811V19.9028Z" fill="#25408F"/>
<path d="M77.5034 19.9028H77.9555V23.0773H77.5034V19.9028Z" fill="#25408F"/>
<path d="M81.0442 19.9028V20.2777H79.9305V23.0773H79.4784V20.2777H78.3647V19.9028H81.0489H81.0442Z" fill="#25408F"/>
<path d="M81.7628 21.7773L82.2958 20.3751L82.8098 21.7773H81.7675H81.7628ZM80.8062 23.0773H81.2678L81.6295 22.1279H82.9335L83.2809 23.0773H83.7759L82.5718 19.9028H82.0626L80.8109 23.0773H80.8062Z" fill="#25408F"/>
<path d="M84.1233 19.9028H84.6563L86.3125 22.4687V19.9028H86.7456V23.0773H86.2364L84.5564 20.5163V23.0773H84.1233V19.9028Z" fill="#25408F"/>
<path d="M92.2521 20.1364C92.4805 20.3457 92.609 20.5843 92.6328 20.857H92.195C92.1474 20.6525 92.0475 20.4918 91.9047 20.3701C91.7572 20.2532 91.5525 20.1948 91.2908 20.1948C90.9671 20.1948 90.7101 20.3068 90.5102 20.5259C90.3104 20.745 90.2152 21.081 90.2152 21.5386C90.2152 21.9135 90.3056 22.2154 90.4817 22.4443C90.6625 22.678 90.9291 22.7899 91.2812 22.7899C91.6049 22.7899 91.8571 22.6682 92.0284 22.4248C92.1189 22.2982 92.1855 22.1278 92.2283 21.9184H92.6662C92.6281 22.2544 92.4996 22.5319 92.2807 22.7607C92.0189 23.0334 91.6667 23.1649 91.2241 23.1649C90.8434 23.1649 90.5198 23.0529 90.2628 22.8289C89.9201 22.5319 89.7488 22.0791 89.7488 21.4607C89.7488 20.9933 89.8773 20.6087 90.1343 20.3117C90.4103 19.9854 90.7958 19.8248 91.2812 19.8248C91.6953 19.8248 92.0189 19.9319 92.2521 20.1412V20.1364Z" fill="#25408F"/>
<path d="M93.2991 19.9028H93.7512V23.0773H93.2991V19.9028Z" fill="#25408F"/>
<path d="M96.8401 19.9028V20.2777H95.7264V23.0773H95.2743V20.2777H94.1606V19.9028H96.8448H96.8401Z" fill="#25408F"/>
<path d="M96.959 19.9028H97.4873L98.4439 21.4267L99.3957 19.9028H99.924L98.6675 21.7968V23.0724H98.2154V21.7968L96.959 19.9028Z" fill="#25408F"/>
</svg>
