<svg width="24" height="28" viewBox="0 0 24 28" fill="none" xmlns="http://www.w3.org/2000/svg">
<path d="M24 11.3596C24 17.5558 18 23.5455 12 27.2632C6 23.5455 0 17.5558 0 11.3596C0 5.88437 5.37258 0 12 0C18.6274 0 24 5.88437 24 11.3596Z" fill="#008558"/>
<path d="M23.5 11.3596C23.5 14.2969 22.0751 17.2337 19.8638 19.9233C17.722 22.5283 14.8766 24.8586 12 26.6735C9.12341 24.8586 6.27799 22.5283 4.13622 19.9233C1.92494 17.2337 0.5 14.2969 0.5 11.3596C0.5 8.78022 1.77063 6.06226 3.86696 3.98146C5.95907 1.90482 8.837 0.5 12 0.5C15.163 0.5 18.0409 1.90482 20.133 3.98146C22.2294 6.06226 23.5 8.78022 23.5 11.3596Z" stroke="black" stroke-opacity="0.3"/>
<path d="M4.68285 9.90609C5.34808 9.8921 6.00581 9.76495 6.62685 9.5303C6.81712 9.46979 6.99111 9.36805 7.13599 9.23261C7.28086 9.09717 7.39291 8.93147 7.46385 8.74778H5.06985V8.06693H7.54485V7.36841H8.47185V8.06693H10.9559V8.74778H8.55585C8.62649 8.93116 8.73808 9.09666 8.88241 9.23208C9.02674 9.3675 9.20014 9.46941 9.38985 9.5303C10.0079 9.76445 10.6626 9.8916 11.3249 9.90609L11.0729 10.5869C10.4298 10.5561 9.79477 10.4339 9.18735 10.2244C8.72458 10.0753 8.31493 9.79919 8.00685 9.42862C7.69959 9.79873 7.29104 10.0748 6.82935 10.2244C6.22571 10.4345 5.59401 10.5566 4.95435 10.5869L4.68285 9.90609ZM8.47185 11.5596V12.1785H10.7669V14.0354H6.14085V14.6337H11.0009V15.3175H5.22585V13.4076H9.86085V12.8505H5.21085V12.1785H7.55085V11.5596H4.34985V10.8758H11.6819V11.5566L8.47185 11.5596ZM20.1089 9.03957V9.79115H18.9659V11.4977H18.0389V7.40378H18.9659V9.03957H20.1089ZM16.7339 11.2324H12.8999V7.73978H13.8269V8.79199H15.8159V7.73978H16.7339V11.2324ZM15.8159 9.49051H13.8269V10.5074H15.8159V9.49051ZM14.6459 14.6013H19.2359V15.3175H13.7369V13.2219H18.0479V12.5587H13.7189V11.8514H18.9689V13.8968H14.6489L14.6459 14.6013Z" fill="white"/>
</svg>
