<svg width="32" height="38" viewBox="0 0 32 38" fill="none" xmlns="http://www.w3.org/2000/svg">
<path d="M32 15.4167C32 23.8258 24 31.9545 16 37C8 31.9545 0 23.8258 0 15.4167C0 7.98592 7.16344 0 16 0C24.8366 0 32 7.98592 32 15.4167Z" fill="#008558"/>
<path d="M31.5 15.4167C31.5 19.4632 29.5725 23.4892 26.611 27.1555C23.7197 30.735 19.8756 33.9298 16 36.4077C12.1244 33.9298 8.28029 30.735 5.38896 27.1555C2.42749 23.4892 0.5 19.4632 0.5 15.4167C0.5 11.8564 2.221 8.12332 5.04166 5.27354C7.85845 2.42766 11.7355 0.5 16 0.5C20.2645 0.5 24.1415 2.42766 26.9583 5.27354C29.779 8.12332 31.5 11.8564 31.5 15.4167Z" stroke="black" stroke-opacity="0.3"/>
<path d="M6.2438 13.444C7.13078 13.425 8.00775 13.2525 8.8358 12.934C9.08949 12.8519 9.32148 12.7138 9.51465 12.53C9.70781 12.3462 9.85721 12.1213 9.9518 11.872H6.7598V10.948H10.0598V10H11.2958V10.948H14.6078V11.872H11.4078C11.502 12.1209 11.6508 12.3455 11.8432 12.5293C12.0357 12.7131 12.2669 12.8514 12.5198 12.934C13.3439 13.2518 14.2168 13.4243 15.0998 13.444L14.7638 14.368C13.9065 14.3261 13.0597 14.1604 12.2498 13.876C11.6328 13.6737 11.0866 13.2989 10.6758 12.796C10.2661 13.2983 9.72139 13.673 9.1058 13.876C8.30094 14.1611 7.45868 14.3269 6.6058 14.368L6.2438 13.444ZM11.2958 15.688V16.528H14.3558V19.048H8.1878V19.86H14.6678V20.788H6.9678V18.196H13.1478V17.44H6.9478V16.528H10.0678V15.688H5.7998V14.76H15.5758V15.684L11.2958 15.688ZM26.8118 12.268V13.288H25.2878V15.604H24.0518V10.048H25.2878V12.268H26.8118ZM22.3118 15.244H17.1998V10.504H18.4358V11.932H21.0878V10.504H22.3118V15.244ZM21.0878 12.88H18.4358V14.26H21.0878V12.88ZM19.5278 19.816H25.6478V20.788H18.3158V17.944H24.0638V17.044H18.2918V16.084H25.2918V18.86H19.5318L19.5278 19.816Z" fill="white"/>
</svg>
