<svg width="16" height="16" viewBox="0 0 16 16" fill="none" xmlns="http://www.w3.org/2000/svg">
<path d="M12.949 3.04951C11.8037 1.90456 10.2968 1.19214 8.68513 1.03362C7.07346 0.875111 5.45667 1.28032 4.11026 2.18021C2.76384 3.0801 1.77112 4.419 1.30119 5.96877C0.83126 7.51855 0.913227 9.18332 1.53311 10.6794C2.153 12.1756 3.27242 13.4105 4.70071 14.1737C6.12901 14.937 7.77778 15.1815 9.36609 14.8654C10.9544 14.5494 12.384 13.6924 13.4113 12.4404C14.4386 11.1885 15 9.61914 15 7.99969C15.0025 7.07993 14.8225 6.16882 14.4705 5.31911C14.1184 4.4694 13.6012 3.69797 12.949 3.04951ZM7.99997 3.3797C8.20511 3.3797 8.40563 3.44051 8.57619 3.55448C8.74675 3.66844 8.87971 3.83045 8.95822 4.01996C9.03672 4.20948 9.05727 4.41802 9.01725 4.61921C8.97723 4.8204 8.87839 5.00519 8.73334 5.15024C8.58829 5.29529 8.40354 5.39406 8.20235 5.43408C8.00116 5.47409 7.79258 5.45358 7.60306 5.37508C7.41355 5.29658 7.25154 5.16365 7.13758 4.99309C7.02361 4.82253 6.96284 4.62197 6.96284 4.41684C6.96345 4.14206 7.07291 3.87876 7.26732 3.68458C7.46173 3.49039 7.7252 3.38001 7.99997 3.3797ZM9.91332 12.4797H6.08663V11.663H6.90331V7.56219H6.08663V6.74551H9.09429V11.6677H9.91097L9.91332 12.4797Z" fill="black" fill-opacity="0.4"/>
</svg>
