<svg width="25" height="24" viewBox="0 0 25 24" fill="none" xmlns="http://www.w3.org/2000/svg">
<path d="M19.9235 4.57427C18.2055 2.85684 15.9452 1.7882 13.5277 1.55043C11.1102 1.31267 8.68501 1.92048 6.66539 3.27031C4.64577 4.62015 3.15668 6.6285 2.45178 8.95316C1.74689 11.2778 1.86984 13.775 2.79967 16.0192C3.7295 18.2633 5.40862 20.1157 7.55107 21.2606C9.69351 22.4055 12.1667 22.7722 14.5491 22.2981C16.9316 21.824 19.076 20.5385 20.617 18.6607C22.1579 16.7828 23.0001 14.4287 23 11.9995C23.0037 10.6199 22.7338 9.25323 22.2057 7.97867C21.6776 6.7041 20.9019 5.54695 19.9235 4.57427ZM12.5 5.06955C12.8077 5.06955 13.1084 5.16077 13.3643 5.33172C13.6201 5.50267 13.8196 5.74567 13.9373 6.02995C14.0551 6.31422 14.0859 6.62703 14.0259 6.92882C13.9658 7.2306 13.8176 7.50779 13.6 7.72536C13.3824 7.94294 13.1053 8.09108 12.8035 8.15111C12.5017 8.21114 12.1889 8.18037 11.9046 8.06262C11.6203 7.94487 11.3773 7.74547 11.2064 7.48963C11.0354 7.23379 10.9443 6.93296 10.9443 6.62526C10.9452 6.21309 11.1094 5.81814 11.401 5.52686C11.6926 5.23558 12.0878 5.07001 12.5 5.06955ZM15.37 18.7195H9.62994V17.4945H10.855V11.3433H9.62994V10.1183H14.1414V17.5015H15.3665L15.37 18.7195Z" fill="#38475D"/>
</svg>
