<svg width="24" height="24" viewBox="0 0 24 24" fill="none" xmlns="http://www.w3.org/2000/svg">
<path d="M12 1.5C9.9233 1.5 7.89323 2.11581 6.16652 3.26957C4.4398 4.42332 3.09399 6.0632 2.29927 7.98182C1.50455 9.90045 1.29661 12.0116 1.70176 14.0484C2.1069 16.0852 3.10693 17.9562 4.57538 19.4246C6.04383 20.8931 7.91476 21.8931 9.95156 22.2982C11.9884 22.7034 14.0996 22.4955 16.0182 21.7007C17.9368 20.906 19.5767 19.5602 20.7304 17.8335C21.8842 16.1068 22.5 14.0767 22.5 12C22.5 9.21523 21.3938 6.54451 19.4246 4.57538C17.4555 2.60625 14.7848 1.5 12 1.5ZM13.113 17.6595C12.9668 17.8036 12.7926 17.9161 12.6012 17.9902C12.4097 18.0642 12.2051 18.0982 12 18.09C11.7952 18.096 11.5912 18.0611 11.4 17.9871C11.2089 17.9132 11.0345 17.8018 10.887 17.6595C10.6737 17.4406 10.5297 17.1637 10.473 16.8633C10.4163 16.563 10.4494 16.2526 10.5682 15.971C10.687 15.6894 10.8862 15.4491 11.1408 15.2801C11.3955 15.1111 11.6944 15.021 12 15.021C12.3056 15.021 12.6045 15.1111 12.8592 15.2801C13.1138 15.4491 13.313 15.6894 13.4318 15.971C13.5506 16.2526 13.5837 16.563 13.527 16.8633C13.4703 17.1637 13.3263 17.4406 13.113 17.6595ZM12.9 13.9215H11.076L10.404 5.91H13.575L12.9 13.9215Z" fill="black" fill-opacity="0.4"/>
</svg>
