<svg width="20" height="20" viewBox="0 0 20 20" fill="none" xmlns="http://www.w3.org/2000/svg">
<g opacity="0.6">
<path d="M10.0027 16.0459C9.0338 16.0461 8.07913 15.8125 7.21979 15.3648C6.36046 14.9172 5.62186 14.2688 5.06671 13.4746C4.51156 12.6805 4.15626 11.7641 4.031 10.8033C3.90573 9.8425 4.0142 8.86565 4.34718 7.95573C4.68017 7.04581 5.22783 6.22969 5.94367 5.57668C6.6595 4.92368 7.52236 4.45308 8.45896 4.20485C9.39556 3.95662 10.3782 3.93809 11.3235 4.15084C11.4187 4.17228 11.5133 4.19599 11.6071 4.22195C12.4447 4.4537 13.2233 4.86436 13.8887 5.42691C13.9798 5.50393 14.0548 5.59813 14.1095 5.70414C14.1641 5.81015 14.1974 5.92589 14.2073 6.04475C14.2173 6.16361 14.2037 6.28326 14.1674 6.39687C14.1311 6.51048 14.0728 6.61584 13.9957 6.70691C13.9187 6.79798 13.8245 6.87299 13.7185 6.92765C13.6125 6.98232 13.4968 7.01557 13.3779 7.0255C13.259 7.03544 13.1394 7.02187 13.0258 6.98556C12.9122 6.94925 12.8068 6.89093 12.7157 6.81391C12.0358 6.24003 11.1926 5.89802 10.3086 5.83433C10.2424 5.82956 10.1759 5.82635 10.1093 5.82473C9.15319 5.80137 8.21775 6.10503 7.45765 6.68548C6.69756 7.26594 6.15833 8.08842 5.92913 9.01694C5.69993 9.94545 5.79449 10.9244 6.19717 11.7919C6.59985 12.6593 7.28654 13.3634 8.14368 13.7876C9.00082 14.2119 9.97708 14.3309 10.911 14.125C11.845 13.919 12.6807 13.4005 13.28 12.6552C13.8792 11.9098 14.2062 10.9823 14.2067 10.0259C14.5 10 15.5 10 16.0227 10.0259C16.0209 11.6219 15.386 13.1521 14.2575 14.2806C13.1289 15.4092 11.5988 16.0441 10.0027 16.0459Z" fill="black"/>
<path d="M15.2354 7.21461C15.2484 7.24788 15.2538 7.28184 15.2514 7.3142C15.2491 7.34655 15.2389 7.37656 15.2216 7.40221C15.2043 7.42785 15.1803 7.44853 15.1512 7.46286C15.1221 7.47719 15.0885 7.48484 15.0528 7.48529L11.4591 7.53494C11.4107 7.53611 11.36 7.52398 11.3131 7.50005C11.2662 7.47611 11.2251 7.4414 11.1949 7.40012C11.1646 7.35884 11.1464 7.31277 11.1426 7.26752C11.1387 7.22226 11.1494 7.17977 11.1732 7.1452L13.4667 3.74487C13.4899 3.70983 13.5253 3.68405 13.5687 3.67067C13.6121 3.65728 13.6616 3.65687 13.7112 3.66948C13.7608 3.68209 13.8084 3.70718 13.8482 3.7417C13.8879 3.77622 13.9182 3.81868 13.9352 3.86392L15.2354 7.21461Z" fill="black"/>
</g>
</svg>
