<svg width="32" height="32" viewBox="0 0 32 32" fill="none" xmlns="http://www.w3.org/2000/svg">
<path fill-rule="evenodd" clip-rule="evenodd" d="M24.6792 11.5689C24.6831 11.5154 24.674 11.4593 24.6526 11.4043L22.5037 5.86653C22.4756 5.79175 22.4256 5.72158 22.3599 5.66453C22.2942 5.60748 22.2156 5.56602 22.1336 5.54518C22.0516 5.52433 21.9697 5.52501 21.898 5.54713C21.8263 5.56925 21.7677 5.61186 21.7295 5.66977L20.6601 7.25526C20.0243 6.91851 19.3525 6.65093 18.656 6.45822C18.5009 6.41531 18.3446 6.37612 18.1873 6.3407C16.6249 5.98908 15.0008 6.01969 13.4529 6.42995C11.9049 6.84021 10.4789 7.61799 9.29579 8.69723C8.11271 9.77648 7.20756 11.1253 6.65723 12.6292C6.10689 14.133 5.92763 15.7475 6.13466 17.3354C6.34169 18.9234 6.92889 20.4379 7.84641 21.7504C8.76392 23.0629 9.98464 24.1346 11.4049 24.8744C12.8251 25.6142 14.4029 26.0004 16.0043 26C18.6422 25.997 21.1711 24.9478 23.0363 23.0825C24.9015 21.2173 25.9507 18.6884 25.9538 16.0506C25.0898 16.0078 23.4371 16.0078 22.9524 16.0506C22.9515 17.6313 22.4112 19.1643 21.4207 20.3961C20.4303 21.628 19.0491 22.4849 17.5055 22.8253C15.9619 23.1656 14.3484 22.9689 12.9318 22.2678C11.5152 21.5666 10.3803 20.403 9.71476 18.9693C9.04924 17.5355 8.89296 15.9176 9.27176 14.383C9.65057 12.8485 10.5418 11.4891 11.798 10.5298C13.0542 9.57045 14.6003 9.06858 16.1804 9.10718C16.2906 9.10987 16.4004 9.11517 16.5099 9.12306C17.3655 9.1847 18.198 9.4041 18.9667 9.76583L17.9389 11.2896C17.8995 11.3467 17.8819 11.417 17.8883 11.4918C17.8946 11.5666 17.9247 11.6427 17.9747 11.7109C18.0248 11.7791 18.0927 11.8365 18.1702 11.8761C18.2477 11.9156 18.3315 11.9357 18.4113 11.9337L24.3509 11.8517C24.4099 11.8509 24.4653 11.8383 24.5134 11.8146C24.5615 11.7909 24.6012 11.7567 24.6298 11.7144C24.6584 11.672 24.6752 11.6224 24.6792 11.5689Z" fill="white"/>
</svg>
