<svg width="44" height="44" viewBox="0 0 44 44" fill="none" xmlns="http://www.w3.org/2000/svg">
<path fill-rule="evenodd" clip-rule="evenodd" d="M22.0001 10.9257C21.9598 10.9257 21.9202 10.9363 21.8852 10.9565C21.8565 10.973 21.8317 10.9955 21.8124 11.0224L18.3512 18.0757L10.5621 19.218C10.528 19.2237 10.496 19.2386 10.4696 19.2613C10.4427 19.2845 10.4227 19.3148 10.4119 19.3488C10.401 19.3828 10.3997 19.4192 10.4081 19.4539C10.4164 19.4879 10.4336 19.5189 10.4579 19.5437L16.0918 25.0566L14.7624 32.8497C14.7624 32.85 14.7625 32.8493 14.7624 32.8497C14.758 32.8769 14.7593 32.9058 14.7664 32.9324C14.7737 32.9593 14.7867 32.9844 14.8044 33.0057C14.8222 33.0271 14.8443 33.0443 14.8693 33.0562C14.8943 33.068 14.9216 33.0742 14.9492 33.0743C14.9775 33.0744 15.004 33.0675 15.029 33.0542L15.0316 33.0528L21.998 29.3692L28.9663 33.0496C28.9657 33.0493 28.9668 33.0499 28.9663 33.0496C28.9972 33.0652 29.0334 33.0729 29.0679 33.0702C29.1031 33.0675 29.1367 33.0549 29.1652 33.0339C29.1937 33.0129 29.2158 32.9843 29.2292 32.9513C29.2422 32.9191 29.2464 32.8839 29.2413 32.8495L27.9082 25.0608L33.5421 19.5458C33.5664 19.521 33.5837 19.49 33.5919 19.456C33.6003 19.4212 33.599 19.3848 33.5881 19.3508C33.5772 19.3168 33.5571 19.2865 33.5302 19.2634C33.5036 19.2406 33.4715 19.2256 33.4371 19.22C33.4366 19.2199 33.4376 19.2201 33.4371 19.22L25.651 18.0755L22.1879 11.0225C22.1685 10.9955 22.1437 10.973 22.115 10.9565C22.08 10.9363 22.0404 10.9257 22.0001 10.9257ZM20.9435 9.28319C21.2655 9.0976 21.6296 9 22.0001 9C22.3706 9 22.7348 9.0976 23.0567 9.28319C23.3787 9.46879 23.6473 9.73599 23.8363 10.0585L23.8543 10.0892L26.9112 16.3149L33.7201 17.3158C34.1044 17.3746 34.465 17.5406 34.7613 17.7951C35.0577 18.0497 35.2781 18.3827 35.398 18.7569C35.5179 19.1311 35.5324 19.5317 35.44 19.9138C35.3476 20.296 35.1518 20.6445 34.8747 20.9203L34.869 20.926L29.9548 25.7364L31.1185 32.5352C31.1812 32.9222 31.1366 33.3192 30.9895 33.682C30.8425 34.0449 30.5988 34.3593 30.2857 34.5902C29.9725 34.8212 29.6021 34.9596 29.2158 34.9901C28.8295 35.0206 28.4424 34.9419 28.0977 34.7629L28.0918 34.7598L21.9985 31.5416L15.9151 34.7583C15.9146 34.7585 15.9156 34.758 15.9151 34.7583C15.6156 34.9175 15.2806 35.001 14.9422 35C14.6386 34.9987 14.3376 34.9305 14.0627 34.8002C13.7877 34.6699 13.544 34.4807 13.3486 34.2456C13.1531 34.0104 13.0105 33.7351 12.9307 33.4386C12.8509 33.1422 12.8358 32.8317 12.8864 32.5287L12.8869 32.5254L14.0456 25.7329L9.12571 20.9186C8.84867 20.643 8.65292 20.2947 8.56032 19.9129C8.46773 19.5311 8.48196 19.1307 8.60144 18.7565C8.72091 18.3824 8.94091 18.0493 9.23681 17.7946C9.53271 17.5398 9.89282 17.3734 10.2768 17.3141L10.2841 17.3129L17.0909 16.3147L20.1459 10.0893L20.1639 10.0585C20.3529 9.73599 20.6216 9.46879 20.9435 9.28319Z" fill="white"/>
</svg>
