<svg width="44" height="44" viewBox="0 0 44 44" fill="none" xmlns="http://www.w3.org/2000/svg">
<g>
<path fill-rule="evenodd" clip-rule="evenodd" d="M11.2848 20.6142C11.2848 15.4617 15.4617 11.2848 20.6142 11.2848C25.7667 11.2848 29.9436 15.4617 29.9436 20.6142C29.9436 25.7667 25.7667 29.9436 20.6142 29.9436C15.4617 29.9436 11.2848 25.7667 11.2848 20.6142ZM20.6142 9.05005C14.2275 9.05005 9.05005 14.2275 9.05005 20.6142C9.05005 27.0009 14.2275 32.1784 20.6142 32.1784C23.4114 32.1784 25.9767 31.1852 27.9766 29.5323L33.6569 35.2125L35.4953 33.3741L29.7833 27.662C31.2853 25.7109 32.1784 23.2669 32.1784 20.6142C32.1784 14.2275 27.0009 9.05005 20.6142 9.05005Z" fill="white"/>
</g>
</svg>
