<svg width="16" height="16" viewBox="0 0 16 16" fill="none" xmlns="http://www.w3.org/2000/svg">
<path fill-rule="evenodd" clip-rule="evenodd" d="M11.1293 12.19C10.0794 13.0124 8.75682 13.5027 7.31972 13.5027C3.90494 13.5027 1.13672 10.7345 1.13672 7.31972C1.13672 3.90494 3.90494 1.13672 7.31972 1.13672C10.7345 1.13672 13.5027 3.90494 13.5027 7.31972C13.5027 8.75682 13.0124 10.0794 12.19 11.1293L14.6406 13.5799C14.9335 13.8728 14.9335 14.3477 14.6406 14.6406C14.3477 14.9335 13.8728 14.9335 13.5799 14.6406L11.1293 12.19ZM2.63672 7.31972C2.63672 4.73337 4.73337 2.63672 7.31972 2.63672C9.90607 2.63672 12.0027 4.73337 12.0027 7.31972C12.0027 8.57774 11.5067 9.71989 10.6995 10.5613C10.6739 10.5809 10.6493 10.6025 10.6259 10.6259C10.6025 10.6493 10.5809 10.6739 10.5613 10.6995C9.71989 11.5067 8.57774 12.0027 7.31972 12.0027C4.73337 12.0027 2.63672 9.90607 2.63672 7.31972Z" fill="black"/>
</svg>
