<svg width="16" height="16" viewBox="0 0 16 16" fill="none" xmlns="http://www.w3.org/2000/svg">
<path d="M5.34766 2.23323C5.34766 1.5518 5.88732 1 6.55366 1C7.22 1 7.75967 1.5518 7.75967 2.23323C7.75967 2.91466 7.22 3.46647 6.55366 3.46647C5.88732 3.46647 5.34766 2.91466 5.34766 2.23323Z" fill="black" fill-opacity="0.6"/>
<path d="M13.4516 12.3215L11.5966 8.45015C11.5827 8.41161 11.5306 8.31702 11.5289 8.31702C11.4265 8.17162 11.2599 8.07527 11.0691 8.07527C11.0691 8.07527 11.0691 8.07527 11.0656 8.07527L8.50086 8.32227L8.31172 7.18013C8.31172 7.18013 10.4548 6.96992 10.4617 6.96817C10.8383 6.92087 10.9615 6.7457 10.9701 6.46366C10.9788 6.17638 10.7584 5.93639 10.4773 5.92588L8.1382 6.13083L7.88311 4.58403C7.77726 3.93939 7.1786 3.50496 6.5487 3.61356C5.9188 3.72217 5.49366 4.33353 5.59951 4.97818L6.24155 8.86181C6.44805 9.55901 6.90963 9.78148 7.9317 9.70616L10.63 9.44514L12.2872 12.9013C12.4 13.1361 12.6308 13.2727 12.8703 13.2727C12.9657 13.2727 13.0629 13.2517 13.1548 13.2044C13.4759 13.0432 13.6095 12.6473 13.4516 12.318V12.3215Z" fill="black" fill-opacity="0.6"/>
<path d="M7.66067 13.9595C5.65297 13.9595 4.01835 12.2883 4.01835 10.237C4.01835 8.95824 4.64999 7.83011 5.61306 7.15919L5.43086 6.05383C3.98365 6.86314 2.99976 8.43271 2.99976 10.2353C2.99976 12.8629 5.09075 15 7.66067 15C9.39766 15 10.916 14.0226 11.7177 12.5774L11.1329 11.3529C10.6679 12.8611 9.28834 13.9595 7.66067 13.9595Z" fill="black" fill-opacity="0.6"/>
</svg>
